<?xml version="1.0" encoding="utf-8"?>
<!-- Generator: Adobe Illustrator 23.1.1, SVG Export Plug-In . SVG Version: 6.00 Build 0)  -->
<svg version="1.1" id="Layer_1" xmlns="http://www.w3.org/2000/svg" xmlns:xlink="http://www.w3.org/1999/xlink" x="0px" y="0px"
	 viewBox="0 0 500 70" style="enable-background:new 0 0 500 70;" xml:space="preserve">
<g>
	<path d="M45.89,54.9V17.54h-0.3L30.36,55h-6.4L8.73,17.54h-0.2V55H0V2.21h10.96l16.14,40.2h0.3l16.04-40.2h10.86V54.9
		C54.31,54.9,45.89,54.9,45.89,54.9z"/>
	<path d="M58.48,43.83c0-6.9,5.28-10.96,14.72-11.57l10.25-0.61v-2.74c0-4.06-2.74-6.4-7.21-6.4c-4.26,0-7.01,2.13-7.61,5.28H60.2
		c0.41-7.21,6.6-12.39,16.45-12.39c9.64,0,15.84,5.08,15.84,12.89V55h-8.83v-6.29h-0.2c-2.23,4.16-7.11,6.8-12.08,6.8
		C63.96,55.51,58.48,50.84,58.48,43.83z M83.45,40.58v-2.94l-8.93,0.51c-4.37,0.3-6.9,2.23-6.9,5.38c0,3.15,2.64,5.18,6.6,5.18
		C79.29,48.71,83.45,45.25,83.45,40.58z"/>
	<path d="M97.56,57.84h9.04c1.02,2.94,4.26,4.97,8.63,4.97c5.89,0,9.34-3.35,9.34-8.22v-6.5h-0.2c-2.03,4.16-6.6,6.9-12.18,6.9
		c-9.54,0-15.94-7.51-15.94-19.59c0-12.28,6.19-19.9,16.14-19.9c5.48,0,9.95,2.84,12.18,7.31h0.1v-6.6h8.93v38.07
		c0,9.24-7.41,15.23-18.68,15.23C105.38,69.52,98.48,64.64,97.56,57.84z M124.57,35.41c0-7.51-3.76-12.39-9.54-12.39
		s-9.44,4.87-9.44,12.39c0,7.72,3.65,12.28,9.44,12.28C120.81,47.69,124.57,43.02,124.57,35.41z"/>
	<path d="M138.98,5.46c0-2.74,2.23-4.97,4.97-4.97c2.84,0,4.97,2.23,4.97,4.97s-2.23,4.97-4.97,4.97
		C141.22,10.33,138.98,8.1,138.98,5.46z M139.39,16.22h9.14V55h-9.14V16.22z"/>
	<path d="M179.8,30.03c-0.71-4.16-3.65-7.21-8.53-7.21c-5.79,0-9.44,4.87-9.44,12.79c0,8.12,3.76,12.79,9.54,12.79
		c4.57,0,7.61-2.64,8.43-7.01h8.63c-0.71,8.63-7.41,14.31-17.16,14.31c-11.37,0-18.68-7.61-18.68-20.1c0-12.39,7.31-20.2,18.58-20.2
		c10.25,0,16.55,6.5,17.16,14.62C188.32,30.03,179.8,30.03,179.8,30.03z"/>
	<path d="M205.99,54.9V2.21h9.44v24.67h0.3l21.02-24.67h10.86l-20.3,23.35l21.93,29.34h-11.47l-17.16-23.05l-5.18,6.09V54.9H205.99z
		"/>
	<path d="M281.93,43.32c-1.22,7.31-7.92,12.39-17.16,12.39c-11.57,0-18.68-7.61-18.68-20c0-12.28,7.11-20.3,18.27-20.3
		c10.96,0,17.87,7.61,17.87,19.39v2.94h-27.11v0.51c0,6.19,3.76,10.36,9.75,10.36c4.26,0,7.41-2.13,8.43-5.38h8.63V43.32z
		 M255.23,31.75h18.07c-0.2-5.48-3.65-9.34-8.93-9.34C259.29,22.41,255.63,26.37,255.23,31.75z"/>
	<path d="M285.48,69.21v-7.21c0.51,0.1,2.13,0.1,2.64,0.1c3.76,0,5.69-1.42,6.7-4.97c0-0.1,0.61-2.03,0.51-2.13l-13.71-38.78h9.95
		l9.14,30.96h0.2l9.14-30.96h9.54l-14.01,40.3c-3.25,9.64-7.61,12.89-16.45,12.89C288.53,69.31,285.99,69.31,285.48,69.21z"/>
	<path d="M331.37,48.3h-0.2v6.6h-8.93V2.21h9.14v20.61h0.2c2.23-4.57,6.6-7.31,12.08-7.31c9.75,0,15.94,7.61,15.94,20
		s-6.19,20-15.94,20C337.97,55.51,333.6,52.77,331.37,48.3z M331.27,35.61c0,7.61,3.96,12.49,9.54,12.49
		c5.89,0,9.44-4.87,9.44-12.49c0-7.72-3.65-12.49-9.44-12.49C335.23,23.02,331.27,27.99,331.27,35.61z"/>
	<path d="M362.03,35.61c0-12.49,7.41-20.2,18.78-20.2c11.27,0,18.78,7.61,18.78,20.2s-7.41,20.1-18.78,20.1
		C369.44,55.71,362.03,48.1,362.03,35.61z M390.25,35.61c0-8.22-3.76-12.89-9.54-12.89c-5.79,0-9.54,4.67-9.54,12.89
		s3.76,12.89,9.54,12.89C386.6,48.5,390.25,43.83,390.25,35.61z"/>
	<path d="M401.93,43.83c0-6.9,5.28-10.96,14.72-11.57l10.25-0.61v-2.74c0-4.06-2.74-6.4-7.21-6.4c-4.26,0-7.01,2.13-7.61,5.28h-8.43
		c0.41-7.21,6.6-12.39,16.45-12.39c9.64,0,15.84,5.08,15.84,12.89V55h-8.73v-6.29h-0.2c-2.23,4.16-7.11,6.8-12.08,6.8
		C407.41,55.51,401.93,50.84,401.93,43.83z M426.9,40.58v-2.94l-8.93,0.51c-4.37,0.3-6.9,2.23-6.9,5.38c0,3.15,2.64,5.18,6.6,5.18
		C422.84,48.71,426.9,45.25,426.9,40.58z"/>
	<path d="M441.12,16.22h8.73v6.8h0.2c1.32-4.67,4.67-7.41,9.24-7.41c1.22,0,2.23,0.2,2.84,0.41v8.22c-0.81-0.3-2.13-0.51-3.65-0.51
		c-5.18,0-8.22,3.35-8.22,8.73V55h-9.14V16.22z"/>
	<path d="M462.64,35.51c0-12.28,6.29-20,16.04-20c5.58,0,9.95,2.84,11.98,7.21h0.2V2.21H500V54.9h-8.93v-6.6h-0.1
		c-2.13,4.37-6.6,7.21-12.28,7.21C468.93,55.51,462.64,47.79,462.64,35.51z M471.98,35.61c0,7.72,3.65,12.49,9.54,12.49
		c5.79,0,9.54-4.87,9.54-12.49s-3.76-12.49-9.54-12.49C475.63,23.02,471.98,27.89,471.98,35.61z"/>
</g>
</svg>
